<svg width="512" height="512" viewBox="0 0 512 512" fill="none" xmlns="http://www.w3.org/2000/svg">
<rect width="512" height="512" fill="#6C63FF"/>
<path d="M225.583 268.371L237.367 280.154C236.598 280.95 235.678 281.585 234.662 282.022C233.645 282.458 232.552 282.688 231.445 282.698C230.339 282.708 229.241 282.497 228.217 282.078C227.193 281.659 226.262 281.04 225.48 280.257C224.698 279.475 224.079 278.545 223.66 277.52C223.241 276.496 223.03 275.399 223.04 274.292C223.049 273.186 223.279 272.092 223.716 271.076C224.153 270.059 224.787 269.14 225.583 268.371ZM262.529 290.558L259.587 293.5L212.5 246.412L215.442 243.471L220.033 244.125C223.175 244.575 227.071 243.617 228.688 242L244.875 225.817C249.573 221.207 255.901 218.639 262.482 218.67C269.064 218.701 275.367 221.33 280.021 225.983C284.675 230.637 287.303 236.94 287.334 243.522C287.365 250.104 284.797 256.431 280.188 261.129L264 277.317C262.383 278.933 261.425 282.829 261.875 285.971L262.529 290.558Z" fill="#111111"/>
<g clip-path="url(#clip0_361_4)">
<path d="M63.2792 226.237C62.0576 226.239 60.8483 226.482 59.7205 226.951C58.5928 227.421 57.5686 228.108 56.7068 228.974C55.8449 229.839 55.1622 230.867 54.6978 231.996C54.2333 233.126 53.9962 234.337 54 235.558V266.629C53.9995 267.853 54.2402 269.066 54.7084 270.197C55.1767 271.328 55.8632 272.356 56.7288 273.221C57.5945 274.087 58.6222 274.773 59.7533 275.242C60.8844 275.71 62.0967 275.951 63.3209 275.95H101.875L119.496 285.762L115.488 275.95H144.679C149.829 275.95 154 271.783 154 266.629V235.558C154 230.408 149.833 226.237 144.679 226.237H63.2792ZM96.9459 231.7C97.7622 231.716 98.5486 232.01 99.175 232.533C99.5405 232.809 99.8426 233.16 100.061 233.563C100.28 233.965 100.409 234.41 100.442 234.867C100.497 235.545 100.355 236.225 100.033 236.825C98.4417 239.771 97.1334 244.717 96.0709 251.583C95.0459 258.25 94.6792 263.442 94.925 267.162C95.0084 268.182 94.8445 269.081 94.4334 269.858C94.2326 270.272 93.9268 270.625 93.5466 270.883C93.1663 271.141 92.725 271.295 92.2667 271.329C91.2042 271.412 90.1 270.921 89.0375 269.821C85.2334 265.933 82.2084 260.129 80 252.404C78.0039 256.311 76.0413 260.235 74.1125 264.175C71.7042 268.8 69.6584 271.167 67.9417 271.292C66.8375 271.375 65.9 270.433 65.0792 268.471C62.9959 263.115 60.7473 252.771 58.3334 237.437C58.2084 236.375 58.4167 235.437 58.9875 234.7C59.5584 233.925 60.4209 233.517 61.5625 233.433C63.6459 233.267 64.832 234.247 65.1209 236.375C66.3875 244.921 67.7792 252.158 69.25 258.083L78.2042 241.042C79.0209 239.486 80.0431 238.668 81.2709 238.587C83.0667 238.462 84.1709 239.608 84.6209 242.021C85.6459 247.458 86.9542 252.079 88.5042 256.004C89.5667 245.621 91.3667 238.137 93.9 233.517C94.5167 232.375 95.4125 231.8 96.6 231.721L96.95 231.704L96.9459 231.7ZM112.504 236.129C113.199 236.129 113.935 236.212 114.713 236.379C116.084 236.64 117.381 237.199 118.512 238.018C119.643 238.837 120.579 239.895 121.254 241.117C122.563 243.325 123.213 245.983 123.213 249.171C123.25 253.25 122.146 257.257 120.025 260.742C117.581 264.831 114.379 266.875 110.421 266.875C109.678 266.869 108.938 266.787 108.213 266.629C105.308 266.017 103.142 264.462 101.671 261.887C100.363 259.637 99.7084 256.939 99.7084 253.792C99.7084 249.583 100.771 245.74 102.896 242.262C105.392 238.175 108.579 236.129 112.504 236.129ZM138.138 236.129C138.832 236.129 139.568 236.212 140.346 236.379C143.246 236.987 145.413 238.546 146.888 241.117C148.196 243.325 148.846 245.983 148.846 249.171C148.883 253.25 147.779 257.257 145.658 260.742C143.214 264.831 140.013 266.875 136.054 266.875C135.312 266.869 134.572 266.787 133.846 266.629C130.942 266.017 128.775 264.462 127.304 261.887C125.996 259.637 125.342 256.939 125.342 253.792C125.342 249.583 126.404 245.74 128.529 242.262C131.025 238.175 134.213 236.129 138.138 236.129ZM112.692 242.983C111.413 242.975 110.167 243.821 108.988 245.575C107.945 247.035 107.208 248.69 106.821 250.442C106.617 251.423 106.52 252.423 106.533 253.425C106.533 254.608 106.783 255.879 107.271 257.146C107.883 258.737 108.7 259.6 109.683 259.804C110.704 260.008 111.808 259.554 112.996 258.492C114.508 257.146 115.529 255.142 116.1 252.442C116.308 251.504 116.388 250.483 116.388 249.417C116.373 248.142 116.124 246.881 115.654 245.696C115.038 244.104 114.221 243.246 113.238 243.042C113.057 243.01 112.875 242.991 112.692 242.983ZM138.325 242.983C137.046 242.975 135.8 243.821 134.621 245.575C133.579 247.035 132.842 248.69 132.454 250.442C132.25 251.379 132.167 252.4 132.167 253.425C132.167 254.608 132.417 255.879 132.904 257.146C133.517 258.737 134.338 259.6 135.317 259.804C136.338 260.008 137.442 259.554 138.629 258.492C140.142 257.146 141.163 255.142 141.733 252.442C141.9 251.504 142.025 250.483 142.025 249.417C142.009 248.142 141.759 246.881 141.288 245.696C140.671 244.104 139.854 243.246 138.871 243.042C138.69 243.01 138.508 242.991 138.325 242.983Z" fill="white"/>
</g>
<g clip-path="url(#clip1_361_4)">
<path d="M433.562 206H380.438C367.493 206 357 216.493 357 229.438V282.562C357 295.507 367.493 306 380.438 306H433.562C446.507 306 457 295.507 457 282.562V229.438C457 216.493 446.507 206 433.562 206Z" fill="#5865F2"/>
<mask id="mask0_361_4" style="mask-type:luminance" maskUnits="userSpaceOnUse" x="367" y="225" width="80" height="62">
<path d="M367.938 225.922H446.062V286.441H367.938V225.922Z" fill="white"/>
</mask>
<g mask="url(#mask0_361_4)">
<path d="M434.073 231.311C429.008 228.987 423.663 227.329 418.171 226.379C418.121 226.37 418.07 226.377 418.024 226.398C417.978 226.42 417.94 226.456 417.916 226.5C417.229 227.721 416.468 229.315 415.936 230.567C409.931 229.668 403.957 229.668 398.075 230.567C397.542 229.287 396.754 227.721 396.064 226.5C396.039 226.456 396.001 226.421 395.955 226.4C395.909 226.378 395.858 226.371 395.808 226.379C390.316 227.326 384.971 228.985 379.906 231.311C379.863 231.33 379.827 231.361 379.802 231.401C369.674 246.532 366.899 261.292 368.26 275.868C368.269 275.94 368.305 276.006 368.362 276.051C375.044 280.959 381.517 283.938 387.87 285.913C387.919 285.927 387.972 285.926 388.021 285.91C388.07 285.894 388.113 285.864 388.144 285.823C389.647 283.77 390.986 281.607 392.135 279.331C392.151 279.3 392.16 279.266 392.161 279.231C392.163 279.196 392.157 279.161 392.144 279.129C392.132 279.096 392.112 279.067 392.087 279.042C392.062 279.018 392.032 278.999 391.999 278.987C389.874 278.181 387.851 277.198 385.905 276.082C385.87 276.062 385.84 276.032 385.819 275.997C385.797 275.962 385.785 275.922 385.782 275.881C385.78 275.84 385.787 275.799 385.805 275.762C385.822 275.724 385.848 275.692 385.881 275.667C386.291 275.36 386.695 275.044 387.091 274.718C387.125 274.69 387.167 274.671 387.212 274.665C387.257 274.659 387.302 274.666 387.343 274.684C400.129 280.521 413.971 280.521 426.606 274.684C426.647 274.665 426.693 274.657 426.738 274.663C426.783 274.668 426.826 274.686 426.861 274.715C427.258 275.042 427.663 275.36 428.075 275.667C428.108 275.691 428.134 275.724 428.151 275.761C428.169 275.798 428.177 275.839 428.175 275.88C428.173 275.921 428.16 275.961 428.139 275.997C428.118 276.032 428.089 276.061 428.053 276.082C426.106 277.219 424.066 278.19 421.956 278.984C421.923 278.997 421.894 279.016 421.869 279.041C421.844 279.066 421.825 279.095 421.812 279.128C421.8 279.161 421.795 279.196 421.796 279.231C421.798 279.266 421.808 279.3 421.824 279.331C422.992 281.589 424.325 283.757 425.811 285.82C425.841 285.862 425.884 285.893 425.933 285.91C425.982 285.926 426.036 285.927 426.085 285.913C432.469 283.938 438.942 280.959 445.624 276.051C445.653 276.03 445.677 276.003 445.694 275.972C445.712 275.941 445.723 275.907 445.726 275.871C447.355 259.02 442.997 244.381 434.175 231.404C434.153 231.362 434.117 231.329 434.073 231.311ZM394.044 266.993C390.195 266.993 387.023 263.459 387.023 259.119C387.023 254.779 390.133 251.245 394.044 251.245C397.986 251.245 401.127 254.81 401.065 259.119C401.065 263.459 397.955 266.993 394.044 266.993ZM420.004 266.993C416.154 266.993 412.983 263.459 412.983 259.119C412.983 254.779 416.093 251.245 420.004 251.245C423.945 251.245 427.086 254.81 427.025 259.119C427.025 263.459 423.945 266.993 420.004 266.993Z" fill="white"/>
</g>
</g>
<defs>
<clipPath id="clip0_361_4">
<rect width="100" height="100" fill="white" transform="translate(54 206)"/>
</clipPath>
<clipPath id="clip1_361_4">
<rect width="100" height="100" fill="white" transform="translate(357 206)"/>
</clipPath>
</defs>
</svg>
